<svg width="280" height="56" viewBox="0 0 280 56" fill="none" xmlns="http://www.w3.org/2000/svg">
<path d="M28 1H252C266.912 1 279 13.0883 279 28C279 42.9117 266.912 55 252 55H28C13.0883 55 1 42.9117 1 28C1 13.0883 13.0883 1 28 1Z" fill="white"/>
<path d="M28 1H252C266.912 1 279 13.0883 279 28C279 42.9117 266.912 55 252 55H28C13.0883 55 1 42.9117 1 28C1 13.0883 13.0883 1 28 1Z" stroke="#E2E8F0" stroke-width="2"/>
<path d="M69.0547 21.5385C70.138 21.5385 71.4959 20.8061 72.3045 19.8296C73.0369 18.9447 73.5709 17.7088 73.5709 16.473C73.5709 16.3051 73.5556 16.1373 73.5251 16C72.3198 16.0458 70.8703 16.8086 70.0006 17.8309C69.3141 18.609 68.6885 19.8296 68.6885 21.0807C68.6885 21.2638 68.719 21.4469 68.7343 21.5079C68.8106 21.5232 68.9326 21.5385 69.0547 21.5385ZM65.2403 40C66.7203 40 67.3764 39.0083 69.2225 39.0083C71.0992 39.0083 71.5111 39.9695 73.1589 39.9695C74.7762 39.9695 75.8595 38.4743 76.8818 37.0095C78.0261 35.3312 78.499 33.6834 78.5296 33.6071C78.4228 33.5766 75.3255 32.3102 75.3255 28.7552C75.3255 25.6732 77.7667 24.2848 77.904 24.178C76.2867 21.8589 73.8303 21.7978 73.1589 21.7978C71.3433 21.7978 69.8633 22.8964 68.9326 22.8964C67.9256 22.8964 66.5982 21.8589 65.0267 21.8589C62.0362 21.8589 59 24.3306 59 28.9994C59 31.8983 60.1291 34.965 61.5175 36.9485C62.7076 38.6268 63.7451 40 65.2403 40Z" fill="black"/>
<path d="M101.54 34.192C100.943 34.192 100.399 34.1227 99.908 33.984C99.428 33.8453 99.0067 33.6587 98.644 33.424C98.292 33.1787 97.9987 32.9067 97.764 32.608C97.5293 32.3093 97.364 31.9947 97.268 31.664L98.788 31.168C98.948 31.6053 99.252 31.984 99.7 32.304C100.148 32.624 100.697 32.7893 101.348 32.8C102.137 32.8 102.756 32.6453 103.204 32.336C103.663 32.016 103.892 31.5947 103.892 31.072C103.892 30.592 103.695 30.2027 103.3 29.904C102.905 29.5947 102.383 29.36 101.732 29.2L100.436 28.864C99.924 28.7253 99.4547 28.528 99.028 28.272C98.612 28.016 98.2813 27.6907 98.036 27.296C97.7907 26.9013 97.668 26.4267 97.668 25.872C97.668 24.848 97.9987 24.048 98.66 23.472C99.332 22.896 100.297 22.608 101.556 22.608C102.281 22.608 102.911 22.7253 103.444 22.96C103.977 23.184 104.415 23.4827 104.756 23.856C105.108 24.2293 105.359 24.64 105.508 25.088L103.988 25.6C103.807 25.12 103.497 24.736 103.06 24.448C102.623 24.1493 102.084 24 101.444 24C100.772 24 100.239 24.16 99.844 24.48C99.46 24.8 99.268 25.2373 99.268 25.792C99.268 26.2613 99.4173 26.624 99.716 26.88C100.025 27.1253 100.436 27.312 100.948 27.44L102.244 27.76C103.289 28.016 104.095 28.4427 104.66 29.04C105.236 29.6267 105.524 30.272 105.524 30.976C105.524 31.584 105.369 32.1333 105.06 32.624C104.761 33.104 104.313 33.488 103.716 33.776C103.129 34.0533 102.404 34.192 101.54 34.192ZM107.209 34L107.241 26H108.745L108.729 34H107.209ZM107.977 24.304C107.732 24.304 107.518 24.2133 107.337 24.032C107.156 23.84 107.065 23.6213 107.065 23.376C107.065 23.12 107.156 22.9067 107.337 22.736C107.518 22.5547 107.732 22.464 107.977 22.464C108.233 22.464 108.446 22.5547 108.617 22.736C108.798 22.9067 108.889 23.12 108.889 23.376C108.889 23.6213 108.798 23.84 108.617 24.032C108.446 24.2133 108.233 24.304 107.977 24.304ZM114.029 37.408C113.495 37.408 113.01 37.3547 112.573 37.248C112.135 37.152 111.767 37.04 111.469 36.912C111.17 36.784 110.946 36.672 110.797 36.576L111.373 35.344C111.511 35.4293 111.709 35.5253 111.965 35.632C112.221 35.7493 112.519 35.8453 112.861 35.92C113.202 36.0053 113.581 36.048 113.997 36.048C114.487 36.048 114.925 35.9467 115.309 35.744C115.693 35.552 115.991 35.248 116.205 34.832C116.429 34.416 116.541 33.8827 116.541 33.232V26H118.061V33.2C118.061 34.1173 117.885 34.8853 117.533 35.504C117.191 36.1333 116.717 36.608 116.109 36.928C115.511 37.248 114.818 37.408 114.029 37.408ZM113.885 33.888C113.159 33.888 112.525 33.7227 111.981 33.392C111.447 33.0507 111.026 32.5813 110.717 31.984C110.418 31.376 110.269 30.6773 110.269 29.888C110.269 29.0667 110.418 28.352 110.717 27.744C111.026 27.136 111.447 26.6613 111.981 26.32C112.525 25.9787 113.159 25.808 113.885 25.808C114.546 25.808 115.122 25.9787 115.613 26.32C116.114 26.6613 116.498 27.1413 116.765 27.76C117.042 28.368 117.181 29.0827 117.181 29.904C117.181 30.6933 117.042 31.392 116.765 32C116.498 32.5973 116.114 33.0613 115.613 33.392C115.122 33.7227 114.546 33.888 113.885 33.888ZM114.269 32.608C114.717 32.608 115.106 32.4907 115.437 32.256C115.767 32.0107 116.029 31.6853 116.221 31.28C116.413 30.864 116.509 30.3893 116.509 29.856C116.509 29.3227 116.413 28.8533 116.221 28.448C116.029 28.0427 115.762 27.728 115.421 27.504C115.09 27.2693 114.701 27.152 114.253 27.152C113.783 27.152 113.367 27.2693 113.005 27.504C112.653 27.728 112.375 28.0427 112.173 28.448C111.97 28.8533 111.869 29.3227 111.869 29.856C111.869 30.3893 111.97 30.864 112.173 31.28C112.386 31.6853 112.669 32.0107 113.021 32.256C113.383 32.4907 113.799 32.608 114.269 32.608ZM119.93 34V26H121.354L121.45 27.472V34H119.93ZM125.466 34V29.904L126.986 29.424V34H125.466ZM125.466 29.904C125.466 29.1787 125.38 28.6293 125.21 28.256C125.05 27.872 124.82 27.6053 124.522 27.456C124.234 27.3067 123.898 27.2267 123.514 27.216C122.863 27.216 122.356 27.4453 121.994 27.904C121.631 28.3627 121.45 29.008 121.45 29.84H120.794C120.794 28.9973 120.916 28.2773 121.162 27.68C121.407 27.072 121.759 26.608 122.218 26.288C122.687 25.968 123.247 25.808 123.898 25.808C124.858 25.808 125.61 26.1067 126.154 26.704C126.708 27.2907 126.986 28.1973 126.986 29.424L125.466 29.904ZM132.421 34L132.453 26H133.957L133.941 34H132.421ZM133.189 24.304C132.943 24.304 132.73 24.2133 132.549 24.032C132.367 23.84 132.277 23.6213 132.277 23.376C132.277 23.12 132.367 22.9067 132.549 22.736C132.73 22.5547 132.943 22.464 133.189 22.464C133.445 22.464 133.658 22.5547 133.829 22.736C134.01 22.9067 134.101 23.12 134.101 23.376C134.101 23.6213 134.01 23.84 133.829 24.032C133.658 24.2133 133.445 24.304 133.189 24.304ZM135.929 34V26H137.353L137.449 27.472V34H135.929ZM141.465 34V29.904L142.985 29.424V34H141.465ZM141.465 29.904C141.465 29.1787 141.379 28.6293 141.209 28.256C141.049 27.872 140.819 27.6053 140.521 27.456C140.233 27.3067 139.897 27.2267 139.513 27.216C138.862 27.216 138.355 27.4453 137.993 27.904C137.63 28.3627 137.449 29.008 137.449 29.84H136.793C136.793 28.9973 136.915 28.2773 137.161 27.68C137.406 27.072 137.758 26.608 138.217 26.288C138.686 25.968 139.246 25.808 139.897 25.808C140.857 25.808 141.609 26.1067 142.153 26.704C142.707 27.2907 142.985 28.1973 142.985 29.424L141.465 29.904ZM155.652 34L158.356 26H159.876L157.156 34H155.652ZM150.26 34L152.916 26H154.292L151.668 34H150.26ZM150.148 34L147.428 26H148.964L151.604 34H150.148ZM155.652 34L153.028 26H154.42L157.06 34H155.652ZM160.945 34L160.977 26H162.481L162.465 34H160.945ZM161.713 24.304C161.468 24.304 161.254 24.2133 161.073 24.032C160.892 23.84 160.801 23.6213 160.801 23.376C160.801 23.12 160.892 22.9067 161.073 22.736C161.254 22.5547 161.468 22.464 161.713 22.464C161.969 22.464 162.182 22.5547 162.353 22.736C162.534 22.9067 162.625 23.12 162.625 23.376C162.625 23.6213 162.534 23.84 162.353 24.032C162.182 24.2133 161.969 24.304 161.713 24.304ZM167.541 34.192C166.741 34.192 166.122 33.9893 165.685 33.584C165.248 33.168 165.029 32.576 165.029 31.808V23.504H166.549V31.584C166.549 31.9787 166.645 32.2827 166.837 32.496C167.04 32.6987 167.328 32.8 167.701 32.8C167.808 32.8 167.925 32.7787 168.053 32.736C168.181 32.6933 168.336 32.608 168.517 32.48L169.093 33.664C168.816 33.8453 168.549 33.9787 168.293 34.064C168.048 34.1493 167.797 34.192 167.541 34.192ZM163.669 27.312V26H168.821V27.312H163.669ZM170.37 34L170.354 22.624H171.874V34H170.37ZM175.906 34V29.904L177.41 29.424V34H175.906ZM175.906 29.904C175.906 29.1787 175.82 28.6293 175.65 28.256C175.479 27.872 175.244 27.6053 174.946 27.456C174.658 27.3067 174.327 27.2267 173.954 27.216C173.292 27.216 172.78 27.4453 172.418 27.904C172.055 28.3627 171.874 29.008 171.874 29.84H171.234C171.234 28.9973 171.356 28.2773 171.602 27.68C171.847 27.072 172.199 26.608 172.658 26.288C173.127 25.968 173.682 25.808 174.322 25.808C175.292 25.808 176.05 26.1067 176.594 26.704C177.148 27.2907 177.42 28.1973 177.41 29.424L175.906 29.904ZM190.86 34L186.428 22.8H188.028L192.54 34H190.86ZM181.836 34L186.348 22.8H187.948L183.516 34H181.836ZM183.964 31.008V29.6H190.412V31.008H183.964ZM193.573 37.2V26H194.997L195.093 27.472V37.2H193.573ZM197.717 34.192C197.045 34.192 196.458 34.016 195.957 33.664C195.466 33.312 195.088 32.8213 194.821 32.192C194.554 31.5627 194.421 30.832 194.421 30C194.421 29.1573 194.554 28.4267 194.821 27.808C195.088 27.1787 195.466 26.688 195.957 26.336C196.458 25.984 197.045 25.808 197.717 25.808C198.432 25.808 199.061 25.984 199.605 26.336C200.149 26.688 200.57 27.1787 200.869 27.808C201.178 28.4267 201.333 29.1573 201.333 30C201.333 30.832 201.178 31.5627 200.869 32.192C200.57 32.8213 200.149 33.312 199.605 33.664C199.061 34.016 198.432 34.192 197.717 34.192ZM197.349 32.816C197.829 32.816 198.25 32.6987 198.613 32.464C198.976 32.2187 199.258 31.888 199.461 31.472C199.674 31.0453 199.781 30.5547 199.781 30C199.781 29.4453 199.68 28.96 199.477 28.544C199.274 28.1173 198.992 27.7867 198.629 27.552C198.266 27.3067 197.845 27.184 197.365 27.184C196.928 27.184 196.533 27.3067 196.181 27.552C195.84 27.7867 195.573 28.1173 195.381 28.544C195.189 28.9707 195.093 29.456 195.093 30C195.093 30.5547 195.189 31.0453 195.381 31.472C195.573 31.888 195.84 32.2187 196.181 32.464C196.522 32.6987 196.912 32.816 197.349 32.816ZM202.833 37.2V26H204.257L204.353 27.472V37.2H202.833ZM206.977 34.192C206.305 34.192 205.718 34.016 205.217 33.664C204.726 33.312 204.348 32.8213 204.081 32.192C203.814 31.5627 203.681 30.832 203.681 30C203.681 29.1573 203.814 28.4267 204.081 27.808C204.348 27.1787 204.726 26.688 205.217 26.336C205.718 25.984 206.305 25.808 206.977 25.808C207.692 25.808 208.321 25.984 208.865 26.336C209.409 26.688 209.83 27.1787 210.129 27.808C210.438 28.4267 210.593 29.1573 210.593 30C210.593 30.832 210.438 31.5627 210.129 32.192C209.83 32.8213 209.409 33.312 208.865 33.664C208.321 34.016 207.692 34.192 206.977 34.192ZM206.609 32.816C207.089 32.816 207.51 32.6987 207.873 32.464C208.236 32.2187 208.518 31.888 208.721 31.472C208.934 31.0453 209.041 30.5547 209.041 30C209.041 29.4453 208.94 28.96 208.737 28.544C208.534 28.1173 208.252 27.7867 207.889 27.552C207.526 27.3067 207.105 27.184 206.625 27.184C206.188 27.184 205.793 27.3067 205.441 27.552C205.1 27.7867 204.833 28.1173 204.641 28.544C204.449 28.9707 204.353 29.456 204.353 30C204.353 30.5547 204.449 31.0453 204.641 31.472C204.833 31.888 205.1 32.2187 205.441 32.464C205.782 32.6987 206.172 32.816 206.609 32.816ZM212.013 34V22.8H213.533V34H212.013ZM218.934 34.192C218.155 34.192 217.467 34.016 216.87 33.664C216.273 33.3013 215.803 32.8053 215.462 32.176C215.121 31.5467 214.95 30.8213 214.95 30C214.95 29.1787 215.121 28.4533 215.462 27.824C215.803 27.1947 216.273 26.704 216.87 26.352C217.478 25.9893 218.171 25.808 218.95 25.808C219.675 25.808 220.315 25.9947 220.87 26.368C221.435 26.7307 221.873 27.2533 222.182 27.936C222.502 28.608 222.662 29.4027 222.662 30.32H221.142C221.153 29.6373 221.067 29.0613 220.886 28.592C220.715 28.1227 220.459 27.7707 220.118 27.536C219.787 27.2907 219.387 27.168 218.918 27.168C218.417 27.168 217.985 27.2853 217.622 27.52C217.259 27.744 216.977 28.0693 216.774 28.496C216.582 28.912 216.486 29.424 216.486 30.032C216.486 30.5973 216.598 31.088 216.822 31.504C217.046 31.9093 217.35 32.2293 217.734 32.464C218.118 32.688 218.555 32.8 219.046 32.8C219.569 32.8 220.001 32.6773 220.342 32.432C220.694 32.1867 220.971 31.872 221.174 31.488L222.534 32.112C222.321 32.528 222.043 32.896 221.702 33.216C221.361 33.5253 220.955 33.7653 220.486 33.936C220.027 34.1067 219.51 34.192 218.934 34.192ZM215.942 30.32L215.958 29.072H221.814V30.32H215.942Z" fill="#1E293B"/>
</svg>
