<svg width="280" height="56" viewBox="0 0 280 56" fill="none" xmlns="http://www.w3.org/2000/svg">
<path d="M28 1H252C266.912 1 279 13.0883 279 28C279 42.9117 266.912 55 252 55H28C13.0883 55 1 42.9117 1 28C1 13.0883 13.0883 1 28 1Z" fill="white"/>
<path d="M28 1H252C266.912 1 279 13.0883 279 28C279 42.9117 266.912 55 252 55H28C13.0883 55 1 42.9117 1 28C1 13.0883 13.0883 1 28 1Z" stroke="#E2E8F0" stroke-width="2"/>
<path d="M66.5 28.0746C66.5 21.4093 61.1241 16 54.5 16C47.8759 16 42.5 21.4093 42.5 28.0746C42.5 34.1057 46.8872 39.1047 52.6339 40V31.5565H49.569V28.0746H52.6339V25.4135C52.6339 22.3917 54.4135 20.713 57.1571 20.713C58.467 20.713 59.8265 20.9617 59.8265 20.9617V23.9088H58.3187C56.8234 23.9088 56.3538 24.8539 56.3538 25.799V28.0622H59.6905L59.1591 31.544H56.3538V39.9876C62.1128 39.1047 66.5 34.1057 66.5 28.0746Z" fill="#1877F2"/>
<path d="M59.1712 31.4646L59.7026 28.006H56.3658V25.7579C56.3658 24.8068 56.8478 23.8804 58.3308 23.8804H59.8385V20.9406C59.8385 20.9406 58.4791 20.6936 57.1691 20.6936C54.4255 20.6936 52.6459 22.3611 52.6459 25.3627V28.006H49.5811V31.4646H52.6459V39.8516C53.2515 39.9504 53.8818 39.9998 54.512 39.9998C55.1423 39.9998 55.7726 39.9504 56.3782 39.8516V31.4646H59.1712Z" fill="white"/>
<path d="M88.04 34.192C87.4427 34.192 86.8987 34.1227 86.408 33.984C85.928 33.8453 85.5067 33.6587 85.144 33.424C84.792 33.1787 84.4987 32.9067 84.264 32.608C84.0293 32.3093 83.864 31.9947 83.768 31.664L85.288 31.168C85.448 31.6053 85.752 31.984 86.2 32.304C86.648 32.624 87.1973 32.7893 87.848 32.8C88.6373 32.8 89.256 32.6453 89.704 32.336C90.1627 32.016 90.392 31.5947 90.392 31.072C90.392 30.592 90.1947 30.2027 89.8 29.904C89.4053 29.5947 88.8827 29.36 88.232 29.2L86.936 28.864C86.424 28.7253 85.9547 28.528 85.528 28.272C85.112 28.016 84.7813 27.6907 84.536 27.296C84.2907 26.9013 84.168 26.4267 84.168 25.872C84.168 24.848 84.4987 24.048 85.16 23.472C85.832 22.896 86.7973 22.608 88.056 22.608C88.7813 22.608 89.4107 22.7253 89.944 22.96C90.4773 23.184 90.9147 23.4827 91.256 23.856C91.608 24.2293 91.8587 24.64 92.008 25.088L90.488 25.6C90.3067 25.12 89.9973 24.736 89.56 24.448C89.1227 24.1493 88.584 24 87.944 24C87.272 24 86.7387 24.16 86.344 24.48C85.96 24.8 85.768 25.2373 85.768 25.792C85.768 26.2613 85.9173 26.624 86.216 26.88C86.5253 27.1253 86.936 27.312 87.448 27.44L88.744 27.76C89.7893 28.016 90.5947 28.4427 91.16 29.04C91.736 29.6267 92.024 30.272 92.024 30.976C92.024 31.584 91.8693 32.1333 91.56 32.624C91.2613 33.104 90.8133 33.488 90.216 33.776C89.6293 34.0533 88.904 34.192 88.04 34.192ZM93.7089 34L93.7409 26H95.2449L95.2289 34H93.7089ZM94.4769 24.304C94.2315 24.304 94.0182 24.2133 93.8369 24.032C93.6555 23.84 93.5649 23.6213 93.5649 23.376C93.5649 23.12 93.6555 22.9067 93.8369 22.736C94.0182 22.5547 94.2315 22.464 94.4769 22.464C94.7329 22.464 94.9462 22.5547 95.1169 22.736C95.2982 22.9067 95.3889 23.12 95.3889 23.376C95.3889 23.6213 95.2982 23.84 95.1169 24.032C94.9462 24.2133 94.7329 24.304 94.4769 24.304ZM100.529 37.408C99.9953 37.408 99.51 37.3547 99.0726 37.248C98.6353 37.152 98.2673 37.04 97.9686 36.912C97.67 36.784 97.446 36.672 97.2966 36.576L97.8726 35.344C98.0113 35.4293 98.2086 35.5253 98.4646 35.632C98.7206 35.7493 99.0193 35.8453 99.3606 35.92C99.702 36.0053 100.081 36.048 100.497 36.048C100.987 36.048 101.425 35.9467 101.809 35.744C102.193 35.552 102.491 35.248 102.705 34.832C102.929 34.416 103.041 33.8827 103.041 33.232V26H104.561V33.2C104.561 34.1173 104.385 34.8853 104.033 35.504C103.691 36.1333 103.217 36.608 102.609 36.928C102.011 37.248 101.318 37.408 100.529 37.408ZM100.385 33.888C99.6593 33.888 99.0246 33.7227 98.4806 33.392C97.9473 33.0507 97.526 32.5813 97.2166 31.984C96.918 31.376 96.7686 30.6773 96.7686 29.888C96.7686 29.0667 96.918 28.352 97.2166 27.744C97.526 27.136 97.9473 26.6613 98.4806 26.32C99.0246 25.9787 99.6593 25.808 100.385 25.808C101.046 25.808 101.622 25.9787 102.113 26.32C102.614 26.6613 102.998 27.1413 103.265 27.76C103.542 28.368 103.681 29.0827 103.681 29.904C103.681 30.6933 103.542 31.392 103.265 32C102.998 32.5973 102.614 33.0613 102.113 33.392C101.622 33.7227 101.046 33.888 100.385 33.888ZM100.769 32.608C101.217 32.608 101.606 32.4907 101.937 32.256C102.267 32.0107 102.529 31.6853 102.721 31.28C102.913 30.864 103.009 30.3893 103.009 29.856C103.009 29.3227 102.913 28.8533 102.721 28.448C102.529 28.0427 102.262 27.728 101.921 27.504C101.59 27.2693 101.201 27.152 100.753 27.152C100.283 27.152 99.8673 27.2693 99.5046 27.504C99.1526 27.728 98.8753 28.0427 98.6726 28.448C98.47 28.8533 98.3686 29.3227 98.3686 29.856C98.3686 30.3893 98.47 30.864 98.6726 31.28C98.886 31.6853 99.1686 32.0107 99.5206 32.256C99.8833 32.4907 100.299 32.608 100.769 32.608ZM106.43 34V26H107.854L107.95 27.472V34H106.43ZM111.966 34V29.904L113.486 29.424V34H111.966ZM111.966 29.904C111.966 29.1787 111.88 28.6293 111.71 28.256C111.55 27.872 111.32 27.6053 111.022 27.456C110.734 27.3067 110.398 27.2267 110.014 27.216C109.363 27.216 108.856 27.4453 108.494 27.904C108.131 28.3627 107.95 29.008 107.95 29.84H107.294C107.294 28.9973 107.416 28.2773 107.662 27.68C107.907 27.072 108.259 26.608 108.718 26.288C109.187 25.968 109.747 25.808 110.398 25.808C111.358 25.808 112.11 26.1067 112.654 26.704C113.208 27.2907 113.486 28.1973 113.486 29.424L111.966 29.904ZM118.921 34L118.953 26H120.457L120.441 34H118.921ZM119.689 24.304C119.443 24.304 119.23 24.2133 119.049 24.032C118.867 23.84 118.777 23.6213 118.777 23.376C118.777 23.12 118.867 22.9067 119.049 22.736C119.23 22.5547 119.443 22.464 119.689 22.464C119.945 22.464 120.158 22.5547 120.329 22.736C120.51 22.9067 120.601 23.12 120.601 23.376C120.601 23.6213 120.51 23.84 120.329 24.032C120.158 24.2133 119.945 24.304 119.689 24.304ZM122.429 34V26H123.853L123.949 27.472V34H122.429ZM127.965 34V29.904L129.485 29.424V34H127.965ZM127.965 29.904C127.965 29.1787 127.879 28.6293 127.709 28.256C127.549 27.872 127.319 27.6053 127.021 27.456C126.733 27.3067 126.397 27.2267 126.013 27.216C125.362 27.216 124.855 27.4453 124.493 27.904C124.13 28.3627 123.949 29.008 123.949 29.84H123.293C123.293 28.9973 123.415 28.2773 123.661 27.68C123.906 27.072 124.258 26.608 124.717 26.288C125.186 25.968 125.746 25.808 126.397 25.808C127.357 25.808 128.109 26.1067 128.653 26.704C129.207 27.2907 129.485 28.1973 129.485 29.424L127.965 29.904ZM142.152 34L144.856 26H146.376L143.656 34H142.152ZM136.76 34L139.416 26H140.792L138.168 34H136.76ZM136.648 34L133.928 26H135.464L138.104 34H136.648ZM142.152 34L139.528 26H140.92L143.56 34H142.152ZM147.445 34L147.477 26H148.981L148.965 34H147.445ZM148.213 24.304C147.968 24.304 147.754 24.2133 147.573 24.032C147.392 23.84 147.301 23.6213 147.301 23.376C147.301 23.12 147.392 22.9067 147.573 22.736C147.754 22.5547 147.968 22.464 148.213 22.464C148.469 22.464 148.682 22.5547 148.853 22.736C149.034 22.9067 149.125 23.12 149.125 23.376C149.125 23.6213 149.034 23.84 148.853 24.032C148.682 24.2133 148.469 24.304 148.213 24.304ZM154.041 34.192C153.241 34.192 152.622 33.9893 152.185 33.584C151.748 33.168 151.529 32.576 151.529 31.808V23.504H153.049V31.584C153.049 31.9787 153.145 32.2827 153.337 32.496C153.54 32.6987 153.828 32.8 154.201 32.8C154.308 32.8 154.425 32.7787 154.553 32.736C154.681 32.6933 154.836 32.608 155.017 32.48L155.593 33.664C155.316 33.8453 155.049 33.9787 154.793 34.064C154.548 34.1493 154.297 34.192 154.041 34.192ZM150.169 27.312V26H155.321V27.312H150.169ZM156.87 34L156.854 22.624H158.374V34H156.87ZM162.406 34V29.904L163.91 29.424V34H162.406ZM162.406 29.904C162.406 29.1787 162.32 28.6293 162.15 28.256C161.979 27.872 161.744 27.6053 161.446 27.456C161.158 27.3067 160.827 27.2267 160.454 27.216C159.792 27.216 159.28 27.4453 158.918 27.904C158.555 28.3627 158.374 29.008 158.374 29.84H157.734C157.734 28.9973 157.856 28.2773 158.102 27.68C158.347 27.072 158.699 26.608 159.158 26.288C159.627 25.968 160.182 25.808 160.822 25.808C161.792 25.808 162.55 26.1067 163.094 26.704C163.648 27.2907 163.92 28.1973 163.91 29.424L162.406 29.904ZM169.616 34V22.8H171.184V34H169.616ZM170.976 29.2V27.76H175.728V29.2H170.976ZM170.976 24.24V22.8H176.4V24.24H170.976ZM182.545 34L182.465 32.608V29.824C182.465 29.2373 182.396 28.752 182.257 28.368C182.129 27.9733 181.926 27.6747 181.649 27.472C181.382 27.2693 181.025 27.168 180.577 27.168C180.161 27.168 179.793 27.2533 179.473 27.424C179.164 27.5947 178.908 27.8613 178.705 28.224L177.329 27.712C177.521 27.3493 177.766 27.024 178.065 26.736C178.364 26.448 178.721 26.224 179.137 26.064C179.564 25.8933 180.054 25.808 180.609 25.808C181.356 25.808 181.98 25.952 182.481 26.24C182.993 26.528 183.372 26.96 183.617 27.536C183.873 28.1013 183.996 28.8053 183.985 29.648L183.969 34H182.545ZM180.209 34.192C179.26 34.192 178.518 33.9787 177.985 33.552C177.462 33.1147 177.201 32.512 177.201 31.744C177.201 30.9227 177.473 30.2987 178.017 29.872C178.572 29.4347 179.34 29.216 180.321 29.216H182.545V30.416H180.737C180.001 30.416 179.484 30.5333 179.185 30.768C178.886 30.992 178.737 31.3067 178.737 31.712C178.737 32.0853 178.876 32.3787 179.153 32.592C179.441 32.7947 179.836 32.896 180.337 32.896C180.774 32.896 181.148 32.7947 181.457 32.592C181.777 32.3893 182.022 32.1227 182.193 31.792C182.374 31.4507 182.465 31.072 182.465 30.656H183.185C183.185 31.744 182.934 32.608 182.433 33.248C181.932 33.8773 181.19 34.192 180.209 34.192ZM189.307 34.192C188.507 34.192 187.798 34.016 187.179 33.664C186.56 33.3013 186.075 32.8053 185.723 32.176C185.382 31.5467 185.211 30.8213 185.211 30C185.211 29.1787 185.382 28.4533 185.723 27.824C186.075 27.1947 186.555 26.704 187.163 26.352C187.782 25.9893 188.486 25.808 189.275 25.808C190.054 25.808 190.752 25.9893 191.371 26.352C192 26.7147 192.47 27.232 192.779 27.904L191.403 28.48C191.2 28.0853 190.907 27.776 190.523 27.552C190.15 27.328 189.718 27.216 189.227 27.216C188.747 27.216 188.32 27.3333 187.947 27.568C187.574 27.8027 187.28 28.1333 187.067 28.56C186.854 28.976 186.747 29.456 186.747 30C186.747 30.544 186.854 31.024 187.067 31.44C187.28 31.856 187.579 32.1867 187.963 32.432C188.347 32.6667 188.779 32.784 189.259 32.784C189.75 32.784 190.187 32.6613 190.571 32.416C190.955 32.16 191.243 31.8187 191.435 31.392L192.827 31.952C192.518 32.656 192.048 33.2053 191.419 33.6C190.8 33.9947 190.096 34.192 189.307 34.192ZM197.627 34.192C196.848 34.192 196.16 34.016 195.563 33.664C194.966 33.3013 194.496 32.8053 194.155 32.176C193.814 31.5467 193.643 30.8213 193.643 30C193.643 29.1787 193.814 28.4533 194.155 27.824C194.496 27.1947 194.966 26.704 195.563 26.352C196.171 25.9893 196.864 25.808 197.643 25.808C198.368 25.808 199.008 25.9947 199.563 26.368C200.128 26.7307 200.566 27.2533 200.875 27.936C201.195 28.608 201.355 29.4027 201.355 30.32H199.835C199.846 29.6373 199.76 29.0613 199.579 28.592C199.408 28.1227 199.152 27.7707 198.811 27.536C198.48 27.2907 198.08 27.168 197.611 27.168C197.11 27.168 196.678 27.2853 196.315 27.52C195.952 27.744 195.67 28.0693 195.467 28.496C195.275 28.912 195.179 29.424 195.179 30.032C195.179 30.5973 195.291 31.088 195.515 31.504C195.739 31.9093 196.043 32.2293 196.427 32.464C196.811 32.688 197.248 32.8 197.739 32.8C198.262 32.8 198.694 32.6773 199.035 32.432C199.387 32.1867 199.664 31.872 199.867 31.488L201.227 32.112C201.014 32.528 200.736 32.896 200.395 33.216C200.054 33.5253 199.648 33.7653 199.179 33.936C198.72 34.1067 198.203 34.192 197.627 34.192ZM194.635 30.32L194.651 29.072H200.507V30.32H194.635ZM202.617 34V22.8H204.137V32.512L204.057 34H202.617ZM206.761 34.192C206.089 34.192 205.502 34.016 205.001 33.664C204.51 33.312 204.131 32.8213 203.865 32.192C203.598 31.5627 203.465 30.832 203.465 30C203.465 29.1573 203.598 28.4267 203.865 27.808C204.131 27.1787 204.51 26.688 205.001 26.336C205.502 25.984 206.089 25.808 206.761 25.808C207.475 25.808 208.105 25.984 208.649 26.336C209.193 26.688 209.614 27.1787 209.913 27.808C210.222 28.4267 210.377 29.1573 210.377 30C210.377 30.832 210.222 31.5627 209.913 32.192C209.614 32.8213 209.193 33.312 208.649 33.664C208.105 34.016 207.475 34.192 206.761 34.192ZM206.393 32.816C206.873 32.816 207.294 32.6987 207.657 32.464C208.019 32.2187 208.302 31.888 208.505 31.472C208.718 31.0453 208.825 30.5547 208.825 30C208.825 29.4453 208.723 28.96 208.521 28.544C208.318 28.1173 208.035 27.7867 207.673 27.552C207.31 27.3067 206.889 27.184 206.409 27.184C205.971 27.184 205.577 27.3067 205.225 27.552C204.883 27.7867 204.617 28.1173 204.425 28.544C204.233 28.9707 204.137 29.456 204.137 30C204.137 30.5547 204.233 31.0453 204.425 31.472C204.617 31.888 204.883 32.2187 205.225 32.464C205.566 32.6987 205.955 32.816 206.393 32.816ZM215.415 34.192C214.615 34.192 213.911 34.016 213.303 33.664C212.695 33.3013 212.215 32.8053 211.863 32.176C211.521 31.5467 211.351 30.8213 211.351 30C211.351 29.1787 211.521 28.4533 211.863 27.824C212.204 27.1947 212.679 26.704 213.287 26.352C213.895 25.9893 214.593 25.808 215.383 25.808C216.172 25.808 216.871 25.9893 217.479 26.352C218.087 26.704 218.561 27.1947 218.903 27.824C219.244 28.4533 219.415 29.1787 219.415 30C219.415 30.8213 219.244 31.5467 218.903 32.176C218.561 32.8053 218.087 33.3013 217.479 33.664C216.881 34.016 216.193 34.192 215.415 34.192ZM215.415 32.8C215.895 32.8 216.321 32.6827 216.695 32.448C217.068 32.2027 217.356 31.872 217.559 31.456C217.772 31.04 217.879 30.5547 217.879 30C217.879 29.4453 217.772 28.96 217.559 28.544C217.356 28.128 217.063 27.8027 216.679 27.568C216.295 27.3227 215.863 27.2 215.383 27.2C214.892 27.2 214.46 27.3227 214.087 27.568C213.713 27.8027 213.42 28.128 213.207 28.544C212.993 28.96 212.887 29.4453 212.887 30C212.887 30.5547 212.993 31.04 213.207 31.456C213.42 31.872 213.719 32.2027 214.103 32.448C214.487 32.6827 214.924 32.8 215.415 32.8ZM224.456 34.192C223.656 34.192 222.952 34.016 222.344 33.664C221.736 33.3013 221.256 32.8053 220.904 32.176C220.562 31.5467 220.392 30.8213 220.392 30C220.392 29.1787 220.562 28.4533 220.904 27.824C221.245 27.1947 221.72 26.704 222.328 26.352C222.936 25.9893 223.634 25.808 224.424 25.808C225.213 25.808 225.912 25.9893 226.52 26.352C227.128 26.704 227.602 27.1947 227.944 27.824C228.285 28.4533 228.456 29.1787 228.456 30C228.456 30.8213 228.285 31.5467 227.944 32.176C227.602 32.8053 227.128 33.3013 226.52 33.664C225.922 34.016 225.234 34.192 224.456 34.192ZM224.456 32.8C224.936 32.8 225.362 32.6827 225.736 32.448C226.109 32.2027 226.397 31.872 226.6 31.456C226.813 31.04 226.92 30.5547 226.92 30C226.92 29.4453 226.813 28.96 226.6 28.544C226.397 28.128 226.104 27.8027 225.72 27.568C225.336 27.3227 224.904 27.2 224.424 27.2C223.933 27.2 223.501 27.3227 223.128 27.568C222.754 27.8027 222.461 28.128 222.248 28.544C222.034 28.96 221.928 29.4453 221.928 30C221.928 30.5547 222.034 31.04 222.248 31.456C222.461 31.872 222.76 32.2027 223.144 32.448C223.528 32.6827 223.965 32.8 224.456 32.8ZM231.353 31.584L230.409 30.544L234.617 26H236.473L231.353 31.584ZM229.881 34V22.8H231.401V34H229.881ZM234.953 34L232.009 29.616L233.001 28.56L236.777 34H234.953Z" fill="#1E293B"/>
</svg>
