<svg width="280" height="56" viewBox="0 0 280 56" fill="none" xmlns="http://www.w3.org/2000/svg">
<path d="M28 1H252C266.912 1 279 13.0883 279 28C279 42.9117 266.912 55 252 55H28C13.0883 55 1 42.9117 1 28C1 13.0883 13.0883 1 28 1Z" fill="white"/>
<path d="M28 1H252C266.912 1 279 13.0883 279 28C279 42.9117 266.912 55 252 55H28C13.0883 55 1 42.9117 1 28C1 13.0883 13.0883 1 28 1Z" stroke="#E2E8F0" stroke-width="2"/>
<path fill-rule="evenodd" clip-rule="evenodd" d="M75.02 28.2727C75.02 27.4218 74.9436 26.6036 74.8018 25.8182H63.5V30.46H69.9582C69.68 31.96 68.8345 33.2309 67.5636 34.0818V37.0927H71.4418C73.7109 35.0036 75.02 31.9273 75.02 28.2727Z" fill="#4285F4"/>
<path fill-rule="evenodd" clip-rule="evenodd" d="M63.5 40C66.74 40 69.4564 38.9254 71.4418 37.0927L67.5636 34.0818C66.4891 34.8018 65.1145 35.2273 63.5 35.2273C60.3745 35.2273 57.7291 33.1163 56.7855 30.28H52.7764V33.3891C54.7509 37.3109 58.8091 40 63.5 40Z" fill="#34A853"/>
<path fill-rule="evenodd" clip-rule="evenodd" d="M56.7855 30.28C56.5455 29.56 56.4091 28.7909 56.4091 28C56.4091 27.2091 56.5455 26.44 56.7855 25.72V22.6109H52.7764C51.9636 24.2309 51.5 26.0636 51.5 28C51.5 29.9364 51.9636 31.7691 52.7764 33.3891L56.7855 30.28Z" fill="#FBBC05"/>
<path fill-rule="evenodd" clip-rule="evenodd" d="M63.5 20.7727C65.2618 20.7727 66.8436 21.3782 68.0873 22.5673L71.5291 19.1255C69.4509 17.1891 66.7345 16 63.5 16C58.8091 16 54.7509 18.6891 52.7764 22.6109L56.7855 25.72C57.7291 22.8836 60.3745 20.7727 63.5 20.7727Z" fill="#EA4335"/>
<path d="M96.54 34.192C95.9427 34.192 95.3987 34.1227 94.908 33.984C94.428 33.8453 94.0067 33.6587 93.644 33.424C93.292 33.1787 92.9987 32.9067 92.764 32.608C92.5293 32.3093 92.364 31.9947 92.268 31.664L93.788 31.168C93.948 31.6053 94.252 31.984 94.7 32.304C95.148 32.624 95.6973 32.7893 96.348 32.8C97.1373 32.8 97.756 32.6453 98.204 32.336C98.6627 32.016 98.892 31.5947 98.892 31.072C98.892 30.592 98.6947 30.2027 98.3 29.904C97.9053 29.5947 97.3827 29.36 96.732 29.2L95.436 28.864C94.924 28.7253 94.4547 28.528 94.028 28.272C93.612 28.016 93.2813 27.6907 93.036 27.296C92.7907 26.9013 92.668 26.4267 92.668 25.872C92.668 24.848 92.9987 24.048 93.66 23.472C94.332 22.896 95.2973 22.608 96.556 22.608C97.2813 22.608 97.9107 22.7253 98.444 22.96C98.9773 23.184 99.4147 23.4827 99.756 23.856C100.108 24.2293 100.359 24.64 100.508 25.088L98.988 25.6C98.8067 25.12 98.4973 24.736 98.06 24.448C97.6227 24.1493 97.084 24 96.444 24C95.772 24 95.2387 24.16 94.844 24.48C94.46 24.8 94.268 25.2373 94.268 25.792C94.268 26.2613 94.4173 26.624 94.716 26.88C95.0253 27.1253 95.436 27.312 95.948 27.44L97.244 27.76C98.2893 28.016 99.0947 28.4427 99.66 29.04C100.236 29.6267 100.524 30.272 100.524 30.976C100.524 31.584 100.369 32.1333 100.06 32.624C99.7613 33.104 99.3133 33.488 98.716 33.776C98.1293 34.0533 97.404 34.192 96.54 34.192ZM102.209 34L102.241 26H103.745L103.729 34H102.209ZM102.977 24.304C102.732 24.304 102.518 24.2133 102.337 24.032C102.156 23.84 102.065 23.6213 102.065 23.376C102.065 23.12 102.156 22.9067 102.337 22.736C102.518 22.5547 102.732 22.464 102.977 22.464C103.233 22.464 103.446 22.5547 103.617 22.736C103.798 22.9067 103.889 23.12 103.889 23.376C103.889 23.6213 103.798 23.84 103.617 24.032C103.446 24.2133 103.233 24.304 102.977 24.304ZM109.029 37.408C108.495 37.408 108.01 37.3547 107.573 37.248C107.135 37.152 106.767 37.04 106.469 36.912C106.17 36.784 105.946 36.672 105.797 36.576L106.373 35.344C106.511 35.4293 106.709 35.5253 106.965 35.632C107.221 35.7493 107.519 35.8453 107.861 35.92C108.202 36.0053 108.581 36.048 108.997 36.048C109.487 36.048 109.925 35.9467 110.309 35.744C110.693 35.552 110.991 35.248 111.205 34.832C111.429 34.416 111.541 33.8827 111.541 33.232V26H113.061V33.2C113.061 34.1173 112.885 34.8853 112.533 35.504C112.191 36.1333 111.717 36.608 111.109 36.928C110.511 37.248 109.818 37.408 109.029 37.408ZM108.885 33.888C108.159 33.888 107.525 33.7227 106.981 33.392C106.447 33.0507 106.026 32.5813 105.717 31.984C105.418 31.376 105.269 30.6773 105.269 29.888C105.269 29.0667 105.418 28.352 105.717 27.744C106.026 27.136 106.447 26.6613 106.981 26.32C107.525 25.9787 108.159 25.808 108.885 25.808C109.546 25.808 110.122 25.9787 110.613 26.32C111.114 26.6613 111.498 27.1413 111.765 27.76C112.042 28.368 112.181 29.0827 112.181 29.904C112.181 30.6933 112.042 31.392 111.765 32C111.498 32.5973 111.114 33.0613 110.613 33.392C110.122 33.7227 109.546 33.888 108.885 33.888ZM109.269 32.608C109.717 32.608 110.106 32.4907 110.437 32.256C110.767 32.0107 111.029 31.6853 111.221 31.28C111.413 30.864 111.509 30.3893 111.509 29.856C111.509 29.3227 111.413 28.8533 111.221 28.448C111.029 28.0427 110.762 27.728 110.421 27.504C110.09 27.2693 109.701 27.152 109.253 27.152C108.783 27.152 108.367 27.2693 108.005 27.504C107.653 27.728 107.375 28.0427 107.173 28.448C106.97 28.8533 106.869 29.3227 106.869 29.856C106.869 30.3893 106.97 30.864 107.173 31.28C107.386 31.6853 107.669 32.0107 108.021 32.256C108.383 32.4907 108.799 32.608 109.269 32.608ZM114.93 34V26H116.354L116.45 27.472V34H114.93ZM120.466 34V29.904L121.986 29.424V34H120.466ZM120.466 29.904C120.466 29.1787 120.38 28.6293 120.21 28.256C120.05 27.872 119.82 27.6053 119.522 27.456C119.234 27.3067 118.898 27.2267 118.514 27.216C117.863 27.216 117.356 27.4453 116.994 27.904C116.631 28.3627 116.45 29.008 116.45 29.84H115.794C115.794 28.9973 115.916 28.2773 116.162 27.68C116.407 27.072 116.759 26.608 117.218 26.288C117.687 25.968 118.247 25.808 118.898 25.808C119.858 25.808 120.61 26.1067 121.154 26.704C121.708 27.2907 121.986 28.1973 121.986 29.424L120.466 29.904ZM127.421 34L127.453 26H128.957L128.941 34H127.421ZM128.189 24.304C127.943 24.304 127.73 24.2133 127.549 24.032C127.367 23.84 127.277 23.6213 127.277 23.376C127.277 23.12 127.367 22.9067 127.549 22.736C127.73 22.5547 127.943 22.464 128.189 22.464C128.445 22.464 128.658 22.5547 128.829 22.736C129.01 22.9067 129.101 23.12 129.101 23.376C129.101 23.6213 129.01 23.84 128.829 24.032C128.658 24.2133 128.445 24.304 128.189 24.304ZM130.929 34V26H132.353L132.449 27.472V34H130.929ZM136.465 34V29.904L137.985 29.424V34H136.465ZM136.465 29.904C136.465 29.1787 136.379 28.6293 136.209 28.256C136.049 27.872 135.819 27.6053 135.521 27.456C135.233 27.3067 134.897 27.2267 134.513 27.216C133.862 27.216 133.355 27.4453 132.993 27.904C132.63 28.3627 132.449 29.008 132.449 29.84H131.793C131.793 28.9973 131.915 28.2773 132.161 27.68C132.406 27.072 132.758 26.608 133.217 26.288C133.686 25.968 134.246 25.808 134.897 25.808C135.857 25.808 136.609 26.1067 137.153 26.704C137.707 27.2907 137.985 28.1973 137.985 29.424L136.465 29.904ZM150.652 34L153.356 26H154.876L152.156 34H150.652ZM145.26 34L147.916 26H149.292L146.668 34H145.26ZM145.148 34L142.428 26H143.964L146.604 34H145.148ZM150.652 34L148.028 26H149.42L152.06 34H150.652ZM155.945 34L155.977 26H157.481L157.465 34H155.945ZM156.713 24.304C156.468 24.304 156.254 24.2133 156.073 24.032C155.892 23.84 155.801 23.6213 155.801 23.376C155.801 23.12 155.892 22.9067 156.073 22.736C156.254 22.5547 156.468 22.464 156.713 22.464C156.969 22.464 157.182 22.5547 157.353 22.736C157.534 22.9067 157.625 23.12 157.625 23.376C157.625 23.6213 157.534 23.84 157.353 24.032C157.182 24.2133 156.969 24.304 156.713 24.304ZM162.541 34.192C161.741 34.192 161.122 33.9893 160.685 33.584C160.248 33.168 160.029 32.576 160.029 31.808V23.504H161.549V31.584C161.549 31.9787 161.645 32.2827 161.837 32.496C162.04 32.6987 162.328 32.8 162.701 32.8C162.808 32.8 162.925 32.7787 163.053 32.736C163.181 32.6933 163.336 32.608 163.517 32.48L164.093 33.664C163.816 33.8453 163.549 33.9787 163.293 34.064C163.048 34.1493 162.797 34.192 162.541 34.192ZM158.669 27.312V26H163.821V27.312H158.669ZM165.37 34L165.354 22.624H166.874V34H165.37ZM170.906 34V29.904L172.41 29.424V34H170.906ZM170.906 29.904C170.906 29.1787 170.82 28.6293 170.65 28.256C170.479 27.872 170.244 27.6053 169.946 27.456C169.658 27.3067 169.327 27.2267 168.954 27.216C168.292 27.216 167.78 27.4453 167.418 27.904C167.055 28.3627 166.874 29.008 166.874 29.84H166.234C166.234 28.9973 166.356 28.2773 166.602 27.68C166.847 27.072 167.199 26.608 167.658 26.288C168.127 25.968 168.682 25.808 169.322 25.808C170.292 25.808 171.05 26.1067 171.594 26.704C172.148 27.2907 172.42 28.1973 172.41 29.424L170.906 29.904ZM183.204 34.192C182.074 34.192 181.066 33.9467 180.18 33.456C179.306 32.9547 178.618 32.272 178.116 31.408C177.626 30.5333 177.38 29.536 177.38 28.416C177.38 27.2747 177.626 26.272 178.116 25.408C178.618 24.5333 179.306 23.8507 180.18 23.36C181.066 22.8587 182.074 22.608 183.204 22.608C183.823 22.608 184.415 22.7093 184.98 22.912C185.556 23.104 186.074 23.376 186.532 23.728C187.002 24.0693 187.38 24.464 187.668 24.912L186.404 25.744C186.191 25.4133 185.914 25.12 185.572 24.864C185.231 24.608 184.852 24.4107 184.436 24.272C184.031 24.1227 183.62 24.048 183.204 24.048C182.383 24.048 181.652 24.2347 181.012 24.608C180.383 24.9813 179.887 25.4933 179.524 26.144C179.162 26.7947 178.98 27.552 178.98 28.416C178.98 29.2587 179.156 30.0053 179.508 30.656C179.871 31.3067 180.372 31.8187 181.012 32.192C181.663 32.5653 182.404 32.752 183.236 32.752C183.908 32.752 184.506 32.6133 185.028 32.336C185.562 32.0587 185.978 31.6693 186.276 31.168C186.586 30.6667 186.74 30.0853 186.74 29.424L188.26 29.28C188.26 30.272 188.042 31.136 187.604 31.872C187.178 32.608 186.586 33.1787 185.828 33.584C185.071 33.9893 184.196 34.192 183.204 34.192ZM184.02 29.52V28.208H188.26V29.36L187.46 29.52H184.02ZM193.218 34.192C192.418 34.192 191.714 34.016 191.106 33.664C190.498 33.3013 190.018 32.8053 189.666 32.176C189.325 31.5467 189.154 30.8213 189.154 30C189.154 29.1787 189.325 28.4533 189.666 27.824C190.008 27.1947 190.482 26.704 191.09 26.352C191.698 25.9893 192.397 25.808 193.186 25.808C193.976 25.808 194.674 25.9893 195.282 26.352C195.89 26.704 196.365 27.1947 196.706 27.824C197.048 28.4533 197.218 29.1787 197.218 30C197.218 30.8213 197.048 31.5467 196.706 32.176C196.365 32.8053 195.89 33.3013 195.282 33.664C194.685 34.016 193.997 34.192 193.218 34.192ZM193.218 32.8C193.698 32.8 194.125 32.6827 194.498 32.448C194.872 32.2027 195.16 31.872 195.362 31.456C195.576 31.04 195.682 30.5547 195.682 30C195.682 29.4453 195.576 28.96 195.362 28.544C195.16 28.128 194.866 27.8027 194.482 27.568C194.098 27.3227 193.666 27.2 193.186 27.2C192.696 27.2 192.264 27.3227 191.89 27.568C191.517 27.8027 191.224 28.128 191.01 28.544C190.797 28.96 190.69 29.4453 190.69 30C190.69 30.5547 190.797 31.04 191.01 31.456C191.224 31.872 191.522 32.2027 191.906 32.448C192.29 32.6827 192.728 32.8 193.218 32.8ZM202.26 34.192C201.46 34.192 200.756 34.016 200.148 33.664C199.54 33.3013 199.06 32.8053 198.708 32.176C198.366 31.5467 198.196 30.8213 198.196 30C198.196 29.1787 198.366 28.4533 198.708 27.824C199.049 27.1947 199.524 26.704 200.132 26.352C200.74 25.9893 201.438 25.808 202.228 25.808C203.017 25.808 203.716 25.9893 204.324 26.352C204.932 26.704 205.406 27.1947 205.748 27.824C206.089 28.4533 206.26 29.1787 206.26 30C206.26 30.8213 206.089 31.5467 205.748 32.176C205.406 32.8053 204.932 33.3013 204.324 33.664C203.726 34.016 203.038 34.192 202.26 34.192ZM202.26 32.8C202.74 32.8 203.166 32.6827 203.54 32.448C203.913 32.2027 204.201 31.872 204.404 31.456C204.617 31.04 204.724 30.5547 204.724 30C204.724 29.4453 204.617 28.96 204.404 28.544C204.201 28.128 203.908 27.8027 203.524 27.568C203.14 27.3227 202.708 27.2 202.228 27.2C201.737 27.2 201.305 27.3227 200.932 27.568C200.558 27.8027 200.265 28.128 200.052 28.544C199.838 28.96 199.732 29.4453 199.732 30C199.732 30.5547 199.838 31.04 200.052 31.456C200.265 31.872 200.564 32.2027 200.948 32.448C201.332 32.6827 201.769 32.8 202.26 32.8ZM210.997 37.408C210.463 37.408 209.978 37.3547 209.541 37.248C209.103 37.152 208.735 37.04 208.437 36.912C208.138 36.784 207.914 36.672 207.765 36.576L208.341 35.344C208.479 35.4293 208.677 35.5253 208.933 35.632C209.189 35.7493 209.487 35.8453 209.829 35.92C210.17 36.0053 210.549 36.048 210.965 36.048C211.455 36.048 211.893 35.9467 212.277 35.744C212.661 35.552 212.959 35.248 213.173 34.832C213.397 34.416 213.509 33.8827 213.509 33.232V26H215.029V33.2C215.029 34.1173 214.853 34.8853 214.501 35.504C214.159 36.1333 213.685 36.608 213.077 36.928C212.479 37.248 211.786 37.408 210.997 37.408ZM210.853 33.888C210.127 33.888 209.493 33.7227 208.949 33.392C208.415 33.0507 207.994 32.5813 207.685 31.984C207.386 31.376 207.237 30.6773 207.237 29.888C207.237 29.0667 207.386 28.352 207.685 27.744C207.994 27.136 208.415 26.6613 208.949 26.32C209.493 25.9787 210.127 25.808 210.853 25.808C211.514 25.808 212.09 25.9787 212.581 26.32C213.082 26.6613 213.466 27.1413 213.733 27.76C214.01 28.368 214.149 29.0827 214.149 29.904C214.149 30.6933 214.01 31.392 213.733 32C213.466 32.5973 213.082 33.0613 212.581 33.392C212.09 33.7227 211.514 33.888 210.853 33.888ZM211.237 32.608C211.685 32.608 212.074 32.4907 212.405 32.256C212.735 32.0107 212.997 31.6853 213.189 31.28C213.381 30.864 213.477 30.3893 213.477 29.856C213.477 29.3227 213.381 28.8533 213.189 28.448C212.997 28.0427 212.73 27.728 212.389 27.504C212.058 27.2693 211.669 27.152 211.221 27.152C210.751 27.152 210.335 27.2693 209.973 27.504C209.621 27.728 209.343 28.0427 209.141 28.448C208.938 28.8533 208.837 29.3227 208.837 29.856C208.837 30.3893 208.938 30.864 209.141 31.28C209.354 31.6853 209.637 32.0107 209.989 32.256C210.351 32.4907 210.767 32.608 211.237 32.608ZM216.898 34V22.8H218.418V34H216.898ZM223.819 34.192C223.04 34.192 222.352 34.016 221.755 33.664C221.158 33.3013 220.688 32.8053 220.347 32.176C220.006 31.5467 219.835 30.8213 219.835 30C219.835 29.1787 220.006 28.4533 220.347 27.824C220.688 27.1947 221.158 26.704 221.755 26.352C222.363 25.9893 223.056 25.808 223.835 25.808C224.56 25.808 225.2 25.9947 225.755 26.368C226.32 26.7307 226.758 27.2533 227.067 27.936C227.387 28.608 227.547 29.4027 227.547 30.32H226.027C226.038 29.6373 225.952 29.0613 225.771 28.592C225.6 28.1227 225.344 27.7707 225.003 27.536C224.672 27.2907 224.272 27.168 223.803 27.168C223.302 27.168 222.87 27.2853 222.507 27.52C222.144 27.744 221.862 28.0693 221.659 28.496C221.467 28.912 221.371 29.424 221.371 30.032C221.371 30.5973 221.483 31.088 221.707 31.504C221.931 31.9093 222.235 32.2293 222.619 32.464C223.003 32.688 223.44 32.8 223.931 32.8C224.454 32.8 224.886 32.6773 225.227 32.432C225.579 32.1867 225.856 31.872 226.059 31.488L227.419 32.112C227.206 32.528 226.928 32.896 226.587 33.216C226.246 33.5253 225.84 33.7653 225.371 33.936C224.912 34.1067 224.395 34.192 223.819 34.192ZM220.827 30.32L220.843 29.072H226.699V30.32H220.827Z" fill="#1E293B"/>
</svg>
